# xmcd
#
# Track frame offsets: 
#        182
#        17537
#        31215
#        47915
#        59792
#        74692
#        89450
#        105965
#        123622
#        140467
#        156342
#
# Disc length: 2271 seconds
#
# Revision: 4
# Processed by: cddbd v1.4PL0 Copyright (c) Steve Scherf et al.
# Submitted via: ExactAudioCopy v0.95a4
#
DISCID=9c08dd0b
DTITLE=The Wilkinsons - Nothing but Love
DYEAR=1998
DGENRE=
TTITLE0=26 cents
TTITLE1=Boy Oh Boy
TTITLE2=Fly
TTITLE3=Don't I Have A Heart
TTITLE4=The Yodelin' Blues
TTITLE5=Nothing But Love (Standing In The Way)
TTITLE6=The Word
TTITLE7=Williamstown
TTITLE8=Then There's You
TTITLE9=Back On My Feet
TTITLE10=One Faithful Heart
EXTD=
EXTT0=
EXTT1=
EXTT2=
EXTT3=
EXTT4=
EXTT5=
EXTT6=
EXTT7=
EXTT8=
EXTT9=
EXTT10=
PLAYORDER=
